<svg width="430" height="430" viewBox="0 0 430 430" fill="none" xmlns="http://www.w3.org/2000/svg">
<path d="M305 190V125C305 75.2944 264.706 35 215 35C165.294 35 125 75.2944 125 125V190" stroke="#08A88A" stroke-width="12" stroke-linejoin="round"/>
<path d="M85 190H345V340C345 362.091 327.091 380 305 380H125C102.909 380 85 362.091 85 340V190Z" stroke="#121331" stroke-width="12" stroke-linejoin="round"/>
<path d="M188.357 324.309L222.779 324.605C233.308 324.687 242.194 315.902 242.224 305.006C242.255 294.131 233.451 285.296 222.575 285.296H207.486C196.6 285.296 187.775 276.471 187.775 265.585C187.775 254.7 196.6 245.885 207.486 245.885H238.031M215.005 340V324.533M215.005 245.895V230" stroke="#08A88A" stroke-width="12" stroke-linecap="round" stroke-linejoin="round"/>
</svg>
